<svg xmlns="http://www.w3.org/2000/svg" viewBox="0 0 620 380" width="620" height="380">
<rect width="620" height="380" fill="#F8F9FC"/>
<text x="10" y="16" font-family="Helvetica" font-size="11" font-weight="bold" fill="#2B2F43" text-anchor="start">Symmetriediagram 1 — Sticker/symbool (480x220px, W=26px)</text>
<line x1="60" y1="96" x2="540" y2="96" stroke="#E24B4A" stroke-width="0.7" stroke-dasharray="4,2" opacity="0.7"/>
<line x1="60" y1="284" x2="540" y2="284" stroke="#E24B4A" stroke-width="0.7" stroke-dasharray="4,2" opacity="0.7"/>
<line x1="60" y1="190" x2="540" y2="190" stroke="#3B6D11" stroke-width="0.7" stroke-dasharray="8,3" opacity="0.6"/>
<line x1="60" y1="160" x2="540" y2="160" stroke="#185FA5" stroke-width="0.7" stroke-dasharray="2,3" opacity="0.5"/>
<line x1="60" y1="220" x2="540" y2="220" stroke="#185FA5" stroke-width="0.7" stroke-dasharray="2,3" opacity="0.5"/>
<line x1="60" y1="124" x2="540" y2="124" stroke="#9BA2BA" stroke-width="0.7" stroke-dasharray="2,3" opacity="0.4"/>
<line x1="179" y1="76" x2="179" y2="334" stroke="#9BA2BA" stroke-width="0.7" stroke-dasharray="3,3" opacity="0.4"/>
<line x1="237" y1="76" x2="237" y2="334" stroke="#9BA2BA" stroke-width="0.7" stroke-dasharray="3,3" opacity="0.4"/>
<line x1="305" y1="76" x2="305" y2="334" stroke="#9BA2BA" stroke-width="0.7" stroke-dasharray="3,3" opacity="0.4"/>
<line x1="348" y1="76" x2="348" y2="334" stroke="#9BA2BA" stroke-width="0.7" stroke-dasharray="3,3" opacity="0.4"/>
<line x1="423" y1="76" x2="423" y2="334" stroke="#9BA2BA" stroke-width="0.7" stroke-dasharray="3,3" opacity="0.4"/>
<line x1="300" y1="76" x2="300" y2="334" stroke="#3B6D11" stroke-width="0.7" stroke-dasharray="3,3" opacity="0.4"/>
<circle cx="179" cy="124" r="24" fill="#2B2F43"/>
<rect x="165" y="156" width="28" height="128" rx="14" fill="#2B2F43"/>
<circle cx="237" cy="160" r="14" fill="#2B2F43"/>
<circle cx="237" cy="220" r="14" fill="#2B2F43"/>
<line x1="305" y1="100" x2="282" y2="280" stroke="#2B2F43" stroke-width="26" stroke-linecap="round"/>
<path d="M 348 96 L 423 190 L 348 284" fill="none" stroke="#8891A8" stroke-width="26" stroke-linecap="round" stroke-linejoin="round"/>
<text x="179" y="88" font-family="Helvetica" font-size="10" font-weight="bold" fill="#2B2F43" text-anchor="middle">i</text>
<text x="237" y="88" font-family="Helvetica" font-size="10" font-weight="bold" fill="#2B2F43" text-anchor="middle">:</text>
<text x="305" y="88" font-family="Helvetica" font-size="10" font-weight="bold" fill="#2B2F43" text-anchor="middle">/</text>
<text x="385" y="88" font-family="Helvetica" font-size="10" font-weight="bold" fill="#2B2F43" text-anchor="middle">></text>
<line x1="165" y1="306" x2="193" y2="306" stroke="#2B2F43" stroke-width="0.8"/>
<line x1="165" y1="302" x2="165" y2="310" stroke="#2B2F43" stroke-width="0.8"/>
<line x1="193" y1="302" x2="193" y2="310" stroke="#2B2F43" stroke-width="0.8"/>
<text x="179" y="319" font-family="Helvetica" font-size="8" fill="#2B2F43" text-anchor="middle">i=28px</text>
<line x1="193" y1="306" x2="223" y2="306" stroke="#185FA5" stroke-width="0.8"/>
<line x1="193" y1="302" x2="193" y2="310" stroke="#185FA5" stroke-width="0.8"/>
<line x1="223" y1="302" x2="223" y2="310" stroke="#185FA5" stroke-width="0.8"/>
<text x="208" y="319" font-family="Helvetica" font-size="8" fill="#185FA5" text-anchor="middle">G=30px</text>
<line x1="223" y1="306" x2="251" y2="306" stroke="#2B2F43" stroke-width="0.8"/>
<line x1="223" y1="302" x2="223" y2="310" stroke="#2B2F43" stroke-width="0.8"/>
<line x1="251" y1="302" x2="251" y2="310" stroke="#2B2F43" stroke-width="0.8"/>
<text x="237" y="319" font-family="Helvetica" font-size="8" fill="#2B2F43" text-anchor="middle">:28px</text>
<line x1="251" y1="306" x2="281" y2="306" stroke="#185FA5" stroke-width="0.8"/>
<line x1="251" y1="302" x2="251" y2="310" stroke="#185FA5" stroke-width="0.8"/>
<line x1="281" y1="302" x2="281" y2="310" stroke="#185FA5" stroke-width="0.8"/>
<text x="266" y="319" font-family="Helvetica" font-size="8" fill="#185FA5" text-anchor="middle">G=30px</text>
<line x1="281" y1="306" x2="330" y2="306" stroke="#2B2F43" stroke-width="0.8"/>
<line x1="281" y1="302" x2="281" y2="310" stroke="#2B2F43" stroke-width="0.8"/>
<line x1="330" y1="302" x2="330" y2="310" stroke="#2B2F43" stroke-width="0.8"/>
<text x="305" y="319" font-family="Helvetica" font-size="8" fill="#2B2F43" text-anchor="middle">/49px</text>
<line x1="330" y1="306" x2="360" y2="306" stroke="#185FA5" stroke-width="0.8"/>
<line x1="330" y1="302" x2="330" y2="310" stroke="#185FA5" stroke-width="0.8"/>
<line x1="360" y1="302" x2="360" y2="310" stroke="#185FA5" stroke-width="0.8"/>
<text x="345" y="319" font-family="Helvetica" font-size="8" fill="#185FA5" text-anchor="middle">G=30px</text>
<line x1="360" y1="306" x2="435" y2="306" stroke="#8891A8" stroke-width="0.8"/>
<line x1="360" y1="302" x2="360" y2="310" stroke="#8891A8" stroke-width="0.8"/>
<line x1="435" y1="302" x2="435" y2="310" stroke="#8891A8" stroke-width="0.8"/>
<text x="397" y="319" font-family="Helvetica" font-size="8" fill="#8891A8" text-anchor="middle">>75px</text>
<line x1="165" y1="78" x2="435" y2="78" stroke="#3B6D11" stroke-width="0.8"/>
<line x1="165" y1="74" x2="165" y2="82" stroke="#3B6D11" stroke-width="0.8"/>
<line x1="435" y1="74" x2="435" y2="82" stroke="#3B6D11" stroke-width="0.8"/>
<text x="300" y="91" font-family="Helvetica" font-size="8" fill="#3B6D11" text-anchor="middle">Totaal: 270px</text>
<line x1="145" y1="96" x2="145" y2="284" stroke="#E24B4A" stroke-width="0.8"/>
<line x1="141" y1="96" x2="149" y2="96" stroke="#E24B4A" stroke-width="0.8"/>
<line x1="141" y1="284" x2="149" y2="284" stroke="#E24B4A" stroke-width="0.8"/>
<text x="155" y="194" font-family="Helvetica" font-size="8" fill="#E24B4A">188px</text>
<line x1="431" y1="96" x2="431" y2="190" stroke="#3B6D11" stroke-width="0.8"/>
<line x1="427" y1="96" x2="435" y2="96" stroke="#3B6D11" stroke-width="0.8"/>
<line x1="427" y1="190" x2="435" y2="190" stroke="#3B6D11" stroke-width="0.8"/>
<text x="441" y="147" font-family="Helvetica" font-size="8" fill="#3B6D11">94px</text>
<line x1="335" y1="200" x2="361" y2="200" stroke="#E24B4A" stroke-width="1.5"/>
<text x="348" y="214" font-family="Helvetica" font-size="8" font-weight="normal" fill="#E24B4A" text-anchor="middle">W=26px</text>
<line x1="8" y1="370" x2="24" y2="370" stroke="#E24B4A" stroke-width="1.5" stroke-dasharray="5,2"/>
<text x="28" y="374" font-family="Helvetica" font-size="8" font-weight="normal" fill="#9BA2BA" text-anchor="start">Top/bottom baseline</text>
<line x1="156" y1="370" x2="172" y2="370" stroke="#3B6D11" stroke-width="1.5" stroke-dasharray="5,2"/>
<text x="176" y="374" font-family="Helvetica" font-size="8" font-weight="normal" fill="#9BA2BA" text-anchor="start">Middellijn cy=110</text>
<line x1="304" y1="370" x2="320" y2="370" stroke="#185FA5" stroke-width="1.5" stroke-dasharray="5,2"/>
<text x="324" y="374" font-family="Helvetica" font-size="8" font-weight="normal" fill="#9BA2BA" text-anchor="start">Colon punten y1/y2</text>
<line x1="452" y1="370" x2="468" y2="370" stroke="#9BA2BA" stroke-width="1.5" stroke-dasharray="5,2"/>
<text x="472" y="374" font-family="Helvetica" font-size="8" font-weight="normal" fill="#9BA2BA" text-anchor="start">dot_cy / centreerlijnen</text>
</svg>