<?xml version="1.0" encoding="UTF-8"?>
<svg xmlns="http://www.w3.org/2000/svg" viewBox="0 0 512 460" width="512" height="460">
  <rect x="80" y="64" width="356" height="356" rx="50" ry="50" fill="#BEC3D4"/>
  <rect x="64" y="48" width="356" height="356" rx="50" ry="50" fill="#EDF1F8"/>
  <rect x="64" y="48" width="356" height="64" rx="50" ry="50" fill="#CDD1DF"/>
  <rect x="64" y="80" width="356" height="34" fill="#CDD1DF"/>
  <circle cx="99" cy="83" r="9" fill="#2B2F43" opacity="0.28"/>
  <circle cx="127" cy="83" r="9" fill="#2B2F43" opacity="0.16"/>
  <circle cx="155" cy="83" r="9" fill="#2B2F43" opacity="0.09"/>
  <rect x="194" y="59" width="206" height="38" rx="14" fill="white" opacity="0.55"/>
  <text x="297" y="86" font-family="'SF Pro Display','Segoe UI',Arial,sans-serif" font-size="12" font-weight="500" fill="#2B2F43" opacity="0.65" text-anchor="middle">https://intrict.com</text>
  <circle cx="140" cy="218" r="20" fill="#2B2F43"/>
  <rect x="128" y="245" width="24" height="101" rx="12" fill="#2B2F43"/>
  <circle cx="189" cy="240" r="12" fill="#2B2F43"/>
  <circle cx="189" cy="292" r="12" fill="#2B2F43"/>
  <line x1="247" y1="189" x2="227" y2="343" stroke="#2B2F43" stroke-width="22" stroke-linecap="round"/>
  <path d="M 283 186 L 347 266 L 283 346" fill="none" stroke="#8891A8" stroke-width="22" stroke-linecap="round" stroke-linejoin="round"/>
</svg>